<svg viewBox="0 0 512 512" xml:space="preserve" xmlns="http://www.w3.org/2000/svg"><g fill="#000000" class="fill-303a3f"><path d="M414 48.7h-71.7V6c0-5-5.8-7.8-9.8-4.7L274 48.6h-83c-28.9 0-52.5 23.6-52.5 52.5v10.5h202.6c33.6 0 61.1 23.6 61.1 52.5v212.6H414c28.9 0 52.5-23.6 52.5-52.5v-223c0-28.9-23.6-52.5-52.5-52.5z"></path><path d="M321 132.8H98c-28.9 0-52.5 23.6-52.5 52.5v223.1c0 28.9 23.6 52.5 52.5 52.5h74.6V506c0 5 5.8 7.8 9.8 4.7l61.6-49.8h77c28.9 0 52.5-23.6 52.5-52.5V185.3c0-28.9-23.6-52.5-52.5-52.5zm3.9 235.2c0 22.4-18.3 40.7-40.7 40.7H134.8c-22.4 0-40.7-18.3-40.7-40.7V229.1c0-22.4 18.3-40.7 40.7-40.7h149.4c22.4 0 40.7 18.3 40.7 40.7V368z"></path><path d="M227 381c-4.2 3.8-10 5.7-17.3 5.7-7.5 0-13.4-1.9-17.7-5.7-4.3-3.8-6.4-9.2-6.4-16.2s2-12.4 6.1-16.2c4.1-3.8 10.1-5.7 18-5.7 7.6 0 13.5 1.9 17.5 5.8 4.1 3.8 6.1 9.2 6.1 16.2 0 6.9-2.1 12.3-6.3 16.1zM264.2 280.1c-4.3 6.7-11.2 13.1-20.6 19.1-8 5.2-13 9-15 11.4-2 2.4-3 5.2-3 8.5v5.8h-35.1v-9.8c0-7.5 1.5-13.8 4.6-18.9 3-5.1 8.4-10.1 16.2-15 6.2-3.9 10.6-7.4 13.3-10.5 2.7-3.1 4.1-6.7 4.1-10.7 0-3.2-1.4-5.7-4.3-7.6-2.9-1.9-6.7-2.8-11.3-2.8-11.5 0-24.9 4.1-40.3 12.2l-15.9-31.1c19-10.8 38.7-16.2 59.4-16.2 17 0 30.3 3.7 40 11.2 9.7 7.5 14.5 17.6 14.5 30.5-.1 9.2-2.3 17.2-6.6 23.9z"></path></g></svg>